<svg width="127" height="129" viewBox="0 0 127 129" fill="none" xmlns="http://www.w3.org/2000/svg">
<path d="M126.818 48.6826C126.38 47.257 125.216 46.2183 123.814 46.0028L84.4439 39.9484L66.8366 2.19471C66.2098 0.850742 64.9165 0 63.5001 0C62.084 0 60.7905 0.851004 60.1637 2.19471L42.5553 39.9486L3.18563 46.0028C1.78417 46.2183 0.619841 47.2572 0.182287 48.6826C-0.255515 50.1079 0.109609 51.6726 1.12362 52.7187L29.6113 82.1061L22.8872 123.602C22.6479 125.079 23.2218 126.572 24.3676 127.453C25.513 128.333 27.0316 128.45 28.286 127.752L63.4999 108.161L98.7128 127.753C99.2573 128.056 99.8516 128.205 100.444 128.205C101.215 128.205 101.983 127.951 102.631 127.453C103.777 126.572 104.351 125.079 104.112 123.602L97.3855 82.1061L125.876 52.7189C126.89 51.6726 127.256 50.1079 126.818 48.6826ZM90.7907 77.9118C89.9136 78.8163 89.5133 80.1198 89.7206 81.3971L95.5028 117.069L65.2317 100.227C64.1478 99.6244 62.8527 99.6244 61.7688 100.227L31.4959 117.07L37.2764 81.3969C37.4833 80.1196 37.0832 78.8166 36.2066 77.912L11.7167 52.6486L45.5614 47.4436C46.7734 47.2572 47.8206 46.4519 48.3628 45.2898L63.4999 12.8336L78.6364 45.2896C79.1787 46.4516 80.2259 47.2572 81.4379 47.4436L115.283 52.6483L90.7907 77.9118Z" fill="#FAFAFA"/>
</svg>
